<?xml version="1.0" standalone="no"?>
<svg xmlns:xlink="http://www.w3.org/1999/xlink" id="wave" style="transform:rotate(180deg); transition: 0.3s" viewBox="0 0 1440 280" version="1.1" xmlns="http://www.w3.org/2000/svg"><defs><linearGradient id="sw-gradient-0" x1="0" x2="0" y1="1" y2="0"><stop stop-color="rgba(199, 255, 237, 1)" offset="0%"/><stop stop-color="rgba(199, 255, 237, 1)" offset="100%"/></linearGradient></defs><path style="transform:translate(0, 0px); opacity:1" fill="url(#sw-gradient-0)" d="M0,140L34.3,130.7C68.6,121,137,103,206,102.7C274.3,103,343,121,411,144.7C480,168,549,196,617,182C685.7,168,754,112,823,93.3C891.4,75,960,93,1029,102.7C1097.1,112,1166,112,1234,93.3C1302.9,75,1371,37,1440,60.7C1508.6,84,1577,168,1646,186.7C1714.3,205,1783,159,1851,135.3C1920,112,1989,112,2057,112C2125.7,112,2194,112,2263,98C2331.4,84,2400,56,2469,70C2537.1,84,2606,140,2674,177.3C2742.9,215,2811,233,2880,224C2948.6,215,3017,177,3086,163.3C3154.3,149,3223,159,3291,154C3360,149,3429,131,3497,112C3565.7,93,3634,75,3703,84C3771.4,93,3840,131,3909,121.3C3977.1,112,4046,56,4114,46.7C4182.9,37,4251,75,4320,84C4388.6,93,4457,75,4526,56C4594.3,37,4663,19,4731,42C4800,65,4869,131,4903,163.3L4937.1,196L4937.1,280L4902.9,280C4868.6,280,4800,280,4731,280C4662.9,280,4594,280,4526,280C4457.1,280,4389,280,4320,280C4251.4,280,4183,280,4114,280C4045.7,280,3977,280,3909,280C3840,280,3771,280,3703,280C3634.3,280,3566,280,3497,280C3428.6,280,3360,280,3291,280C3222.9,280,3154,280,3086,280C3017.1,280,2949,280,2880,280C2811.4,280,2743,280,2674,280C2605.7,280,2537,280,2469,280C2400,280,2331,280,2263,280C2194.3,280,2126,280,2057,280C1988.6,280,1920,280,1851,280C1782.9,280,1714,280,1646,280C1577.1,280,1509,280,1440,280C1371.4,280,1303,280,1234,280C1165.7,280,1097,280,1029,280C960,280,891,280,823,280C754.3,280,686,280,617,280C548.6,280,480,280,411,280C342.9,280,274,280,206,280C137.1,280,69,280,34,280L0,280Z"/></svg>